<svg width="347" height="80" viewBox="0 0 347 80" fill="none" xmlns="http://www.w3.org/2000/svg">
<g clip-path="url(#clip0_1311_9249)">
<path fill-rule="evenodd" clip-rule="evenodd" d="M22.8346 0L57.1654 0C65.1055 0 67.9848 0.826728 70.8875 2.37915C73.7903 3.93157 76.0684 6.20969 77.6208 9.11247C79.1733 12.0152 80 14.8945 80 22.8346V57.1654C80 65.1055 79.1733 67.9848 77.6208 70.8875C76.0684 73.7903 73.7903 76.0684 70.8875 77.6208C67.9848 79.1733 65.1055 80 57.1654 80H22.8346C14.8945 80 12.0152 79.1733 9.11247 77.6208C6.20969 76.0684 3.93157 73.7903 2.37915 70.8875C0.826728 67.9848 0 65.1055 0 57.1654L0 22.8346C0 14.8945 0.826728 12.0152 2.37915 9.11247C3.93157 6.20969 6.20969 3.93157 9.11247 2.37915C12.0152 0.826728 14.8945 0 22.8346 0Z" fill="#0C73FE"/>
<path d="M33.3529 43C32.6057 43 32 43.6057 32 44.3529V45.0485L32.0017 45.0823C32.1425 47.8981 34.2669 50.718 37.8815 50.996L37.9333 51H38.6471C39.3943 51 40 50.3943 40 49.6471C40 48.8998 39.3943 48.2941 38.6471 48.2941H38.0406C35.9629 48.1118 34.7986 46.5502 34.7059 44.9781V44.3529C34.7059 43.6057 34.1002 43 33.3529 43Z" fill="white"/>
<path fill-rule="evenodd" clip-rule="evenodd" d="M37.0633 21.1386C30.0704 21.4465 24.6643 27.1867 24.3133 34.1775C24.1372 37.6839 23.9999 40.819 23.9999 43.7333C23.9999 46.4516 24.1194 49.1732 24.2783 52.3013C24.6318 59.2575 30.0289 64.946 36.987 65.2579C38.0408 65.3052 39.0621 65.3333 39.9999 65.3333C40.9672 65.3333 42.023 65.3034 43.1118 65.2534C50.0247 64.9363 55.4017 59.3149 55.7425 52.4031C55.8909 49.394 55.9999 46.7049 55.9999 43.7333C55.9999 40.4143 55.8786 37.3525 55.7177 34.0451C55.3806 27.1121 49.9996 21.4591 43.0655 21.1444C41.9931 21.0957 40.9535 21.0666 39.9999 21.0666C39.0847 21.0666 38.09 21.0934 37.0633 21.1386ZM28.2021 34.9793C28.4672 29.6509 32.5131 25.2987 37.7246 25.0585C38.5205 25.0219 39.2919 25 40 25C40.7433 25 41.5565 25.0241 42.3945 25.0641C47.5514 25.3105 51.5708 29.5809 51.8203 34.8547C51.844 35.3573 51.8664 35.7858 51.8866 36.1741C51.9551 37.4905 52 38.353 52 40.1412C52 41.9053 51.951 42.9092 51.8773 44.4191C51.8654 44.6617 51.8529 44.9176 51.8399 45.1915C51.5902 50.4449 47.575 54.6853 42.438 54.9338C41.5847 54.9751 40.7562 55 40 55C39.2712 55 38.4752 54.9768 37.6546 54.9382C32.4751 54.6944 28.4379 50.3907 28.1746 45.0948C28.1574 44.7491 28.1411 44.4325 28.1257 44.136L28.1256 44.1337C28.0503 42.676 28 41.7033 28 40.1412C28 38.6408 28.0464 37.8167 28.1168 36.5655C28.1424 36.1109 28.1712 35.5996 28.2021 34.9793Z" fill="white"/>
<path fill-rule="evenodd" clip-rule="evenodd" d="M22.8346 5H57.1654C64.7004 5 66.6478 5.78184 68.5295 6.78822C70.561 7.87464 72.1254 9.43902 73.2118 11.4705C74.2182 13.3522 75 15.2996 75 22.8346V24.0213C75 24.567 74.5625 25.0112 74.0174 25.0343C73.8496 25.0414 73.6799 25.0495 73.509 25.0585C68.949 25.2987 65.4088 29.6509 65.1768 34.9793C65.15 35.5957 65.1249 36.1051 65.1026 36.5575L65.1023 36.563L65.1022 36.5655C65.0406 37.8167 65 38.6408 65 40.1412C65 41.7033 65.044 42.6764 65.1099 44.1341C65.1234 44.4312 65.1377 44.7483 65.1528 45.0948C65.3831 50.3907 68.9158 54.6944 73.4478 54.9382C73.6394 54.9485 73.8295 54.9577 74.0174 54.9657C74.5625 54.9888 75 55.433 75 55.9787V57.1654C75 64.7004 74.2182 66.6478 73.2118 68.5295C72.1254 70.561 70.561 72.1254 68.5295 73.2118C66.6478 74.2182 64.7004 75 57.1654 75H22.8346C15.2996 75 13.3522 74.2182 11.4705 73.2118C9.43903 72.1254 7.87464 70.561 6.78822 68.5295C5.78184 66.6478 5 64.7004 5 57.1654V55.9787C5 55.433 5.43745 54.9888 5.9826 54.9657C6.19692 54.9566 6.41416 54.9459 6.63326 54.9338C11.1281 54.6853 14.6414 50.4449 14.8599 45.1915C14.8711 44.9219 14.8819 44.6699 14.8921 44.4308L14.8926 44.4187C14.9571 42.9088 15 41.9053 15 40.1412C15 38.353 14.9607 37.4897 14.9007 36.1733C14.883 35.785 14.8635 35.3573 14.8427 34.8547C14.6245 29.5809 11.1075 25.3105 6.59518 25.0641C6.38898 25.0529 6.1845 25.0429 5.98262 25.0343C5.43747 25.0112 5 24.567 5 24.0213V22.8346C5 15.2996 5.78184 13.3522 6.78822 11.4705C7.87464 9.43903 9.43903 7.87464 11.4705 6.78822C13.3522 5.78184 15.2996 5 22.8346 5ZM36.911 17.6752C28.0083 18.0671 21.2855 25.3526 20.8511 34.0036C20.6751 37.5098 20.5334 40.7227 20.5334 43.7332C20.5334 46.5469 20.6571 49.3447 20.8163 52.4771C21.2547 61.1063 27.9801 68.3241 36.832 68.721C37.9213 68.7698 38.9965 68.7998 40.0001 68.7998C41.0349 68.7998 42.1461 68.7679 43.2708 68.7163C52.0583 68.3132 58.7808 61.1796 59.2051 52.5737C59.3543 49.5484 59.4668 46.7915 59.4668 43.7332C59.4668 40.3292 59.3422 37.201 59.1805 33.8766C58.7613 25.2568 52.0418 18.0814 43.2229 17.6812C42.1147 17.6309 41.0203 17.5999 40.0001 17.5999C39.0206 17.5999 37.9731 17.6284 36.911 17.6752Z" fill="white"/>
<path d="M273.412 14H279.272V55.0951H273.412V14Z" fill="#0C131D"/>
<path d="M169.72 14.2377H163.394V20.4714H169.72V14.2377Z" fill="#0C131D"/>
<path d="M226.893 38.1031C229.664 38.5784 231.787 39.4102 233.2 40.7081C234.64 42.0883 235.36 43.9438 235.369 46.3112C235.369 47.7645 235.068 49.099 234.585 50.3055V50.3238C234.029 51.5669 233.164 52.5449 232.015 53.395C230.867 54.245 229.418 54.9032 227.631 55.3236C225.836 55.808 223.639 55.9817 221.124 55.9817C219.182 55.9817 217.341 55.7989 215.683 55.4424C214.015 55.0768 212.511 54.4827 211.244 53.6326C209.904 52.7734 208.874 51.6857 208.09 50.2873C207.297 48.9436 206.824 47.2527 206.641 45.2235L206.605 44.8305H212.411L212.438 45.1595C212.556 46.3478 212.839 47.2709 213.313 47.9656L213.322 47.9747C213.805 48.7334 214.461 49.2818 215.236 49.7297C216.011 50.1776 216.849 50.4518 217.861 50.6255C218.882 50.7991 219.966 50.854 221.124 50.854C222.865 50.854 224.232 50.7351 225.371 50.5066C226.456 50.2781 227.294 49.9948 227.941 49.6109C228.579 49.2453 228.998 48.77 229.254 48.2581C229.472 47.7097 229.627 47.0516 229.627 46.3569C229.627 45.3058 229.217 44.6111 228.515 44.1541C227.75 43.6605 226.756 43.3223 225.499 43.0938H225.489L216.339 41.6313C213.787 41.22 211.727 40.3791 210.26 39.0263C208.774 37.6553 208.045 35.7266 208.045 33.3136C208.045 32.0979 208.282 30.8822 208.774 29.7763C209.275 28.652 210.077 27.7288 211.162 26.8879C212.265 26.0287 213.65 25.4254 215.309 24.9501C216.986 24.4748 218.945 24.2372 221.242 24.2372C223.074 24.2372 224.797 24.4108 226.456 24.7673C228.069 25.1238 229.509 25.7271 230.712 26.5131L230.721 26.5223C231.933 27.3723 232.963 28.46 233.747 29.7945C234.54 31.1382 235.014 32.8383 235.251 34.7943L235.296 35.2056H229.418L229.381 34.8766C229.272 33.7615 228.944 32.884 228.506 32.171C228.014 31.4581 227.413 30.9097 226.702 30.4709C225.927 30.0322 225.098 29.758 224.204 29.5843C223.211 29.4655 222.245 29.3558 221.224 29.3558C219.665 29.3558 218.417 29.4655 217.46 29.694C216.43 29.9225 215.655 30.2058 215.117 30.5258C214.598 30.8365 214.243 31.2479 214.042 31.7049C213.832 32.1802 213.723 32.7195 213.723 33.3136C213.723 34.4561 214.088 35.1965 214.826 35.6352H214.835L214.844 35.6444C215.655 36.1837 216.758 36.531 218.198 36.7595L226.893 38.1031Z" fill="#0C131D"/>
<path d="M134.566 25.1146L144.264 46.6951L153.569 25.1146H159.931L145.895 55.0951H142.532L128.141 25.1146H134.566Z" fill="#0C131D"/>
<path fill-rule="evenodd" clip-rule="evenodd" d="M253.98 24.2372C258.164 24.2372 261.518 25.0598 263.933 26.7599C266.394 28.4875 267.652 31.3667 267.67 35.1874V55.1225H261.81V50.2873C260.834 52.2342 259.349 53.6875 257.371 54.6198C255.329 55.5795 253.051 56 250.563 56C248.922 56 247.427 55.8812 246.042 55.5156C244.666 55.1591 243.454 54.6107 242.469 53.8154C241.421 53.0751 240.628 52.0331 240.081 50.8174C239.462 49.5743 239.225 48.0479 239.225 46.3295C239.225 45.3058 239.343 44.2089 239.708 43.1121C240.072 42.0061 240.692 40.9641 241.667 40.0409C242.588 39.1086 243.864 38.3865 245.468 37.7924H245.477C247.099 37.2439 249.186 36.9514 251.72 36.9514C252.303 36.9514 252.85 36.9606 253.361 36.9789H253.443C253.926 36.9971 254.372 37.0063 254.81 37.0063C255.284 37.0063 255.73 37.0154 256.15 37.0337H256.186C256.329 37.0369 256.47 37.0412 256.608 37.0455C256.865 37.0534 257.116 37.0611 257.371 37.0611H257.407C258.164 37.1251 258.911 37.18 259.65 37.18H259.686L259.912 37.1959C260.501 37.2376 261.122 37.2815 261.8 37.2896V35.2056C261.8 33.0485 261.181 31.6043 260.023 30.7634C258.829 29.8951 256.888 29.3741 253.999 29.3741C252.741 29.3741 251.593 29.4838 250.672 29.6026C249.724 29.7671 248.959 30.0505 248.311 30.4801C247.664 30.9097 247.181 31.4489 246.798 32.1619L246.78 32.1802C246.343 32.884 246.069 33.7706 245.896 34.9131L245.851 35.2239H240.163L240.209 34.8126C240.446 32.8474 240.92 31.1656 241.649 29.822C242.369 28.4875 243.28 27.3998 244.438 26.5406L244.447 26.5314C245.595 25.7362 246.981 25.1329 248.594 24.7765C250.143 24.4108 251.975 24.2372 253.98 24.2372ZM246.698 49.8485C247.837 50.5066 249.679 50.854 252.231 50.854C253.388 50.854 254.482 50.7991 255.63 50.598C256.76 50.4244 257.772 50.0862 258.674 49.6383C259.54 49.2087 260.251 48.5506 260.807 47.7188C261.336 46.9145 261.682 45.8176 261.791 44.4557V41.7867C260.288 41.7319 258.847 41.677 257.544 41.6222C256.842 41.6222 256.168 41.613 255.53 41.5948H255.448C255.23 41.5915 255.018 41.5871 254.809 41.5828C254.431 41.5749 254.065 41.5673 253.707 41.5673C251.747 41.5673 250.143 41.741 249.004 41.9695C247.856 42.262 246.99 42.6002 246.47 43.0115L246.452 43.0298C245.86 43.4503 245.504 43.9713 245.358 44.474L245.34 44.5105C245.131 45.0315 245.076 45.6257 245.076 46.2472C245.076 48.1027 245.632 49.2361 246.698 49.8485Z" fill="#0C131D"/>
<path d="M169.492 25.1146H163.631V55.0951H169.492V25.1146Z" fill="#0C131D"/>
<path d="M344.84 40.7081C343.427 39.4102 341.304 38.5784 338.533 38.1031L329.838 36.7595C328.398 36.531 327.295 36.1837 326.484 35.6444L326.475 35.6352H326.466C325.727 35.1965 325.363 34.4561 325.363 33.3136C325.363 32.7195 325.472 32.1802 325.682 31.7049C325.882 31.2479 326.238 30.8365 326.757 30.5258C327.295 30.2058 328.07 29.9225 329.1 29.694C330.057 29.4655 331.305 29.3558 332.864 29.3558C333.885 29.3558 334.851 29.4655 335.844 29.5843C336.737 29.758 337.567 30.0322 338.342 30.4709C339.052 30.9097 339.654 31.4581 340.146 32.171C340.584 32.884 340.912 33.7615 341.021 34.8766L341.058 35.2056H346.936L346.891 34.7943C346.654 32.8383 346.18 31.1382 345.387 29.7945C344.603 28.46 343.573 27.3723 342.361 26.5223L342.352 26.5131C341.149 25.7271 339.709 25.1238 338.095 24.7673C336.437 24.4108 334.714 24.2372 332.882 24.2372C330.585 24.2372 328.626 24.4748 326.949 24.9501C325.29 25.4254 323.905 26.0287 322.802 26.8879C321.717 27.7288 320.915 28.652 320.414 29.7763C319.922 30.8822 319.685 32.0979 319.685 33.3136C319.685 35.7266 320.414 37.6553 321.899 39.0263C323.367 40.3791 325.427 41.22 327.979 41.6313L337.129 43.0938H337.138C338.396 43.3223 339.39 43.6605 340.155 44.1541C340.857 44.6111 341.267 45.3058 341.267 46.3569C341.267 47.0607 341.112 47.7097 340.893 48.2581C340.638 48.77 340.219 49.2453 339.581 49.6109C338.934 49.9948 338.095 50.2781 337.011 50.5066C335.872 50.7351 334.504 50.854 332.764 50.854C331.606 50.854 330.522 50.7991 329.501 50.6255C328.489 50.4518 327.651 50.1776 326.876 49.7297C326.101 49.2818 325.445 48.7334 324.962 47.9747L324.944 47.9656C324.47 47.2709 324.187 46.3478 324.069 45.1595L324.041 44.8305H318.236L318.272 45.2235C318.454 47.2527 318.928 48.9436 319.721 50.2873C320.505 51.6857 321.535 52.7734 322.875 53.6235C324.142 54.4736 325.645 55.0677 327.313 55.4333C328.972 55.7898 330.813 55.9726 332.755 55.9726C335.27 55.9726 337.467 55.7989 339.262 55.3145C341.048 54.894 342.498 54.2359 343.646 53.3858C344.794 52.5358 345.66 51.5578 346.216 50.3147V50.2964C346.699 49.0899 347 47.7554 347 46.3021C347 43.9438 346.271 42.0883 344.84 40.7081Z" fill="#0C131D"/>
<path fill-rule="evenodd" clip-rule="evenodd" d="M307.973 48.3586C308.456 47.7097 308.784 46.8962 309.012 45.8176L309.076 45.5068H314.872L314.809 45.9273C314.517 47.7736 313.979 49.3458 313.123 50.6346C312.284 51.9691 311.254 53.0019 309.978 53.788C308.711 54.5741 307.271 55.1134 305.667 55.4698C303.999 55.8263 302.222 55.9451 300.281 55.9451C297.865 55.9451 295.733 55.7166 293.828 55.1773C291.914 54.702 290.228 53.7971 288.897 52.5815C287.566 51.3567 286.545 49.7205 285.825 47.6914C285.105 45.7079 284.75 43.2126 284.75 40.2602C284.75 37.2439 285.096 34.6846 285.816 32.6463C286.527 30.6171 287.548 28.9262 288.879 27.6465L288.888 27.6374C290.209 26.4309 291.841 25.526 293.755 24.9867H293.764C295.66 24.5114 297.792 24.2189 300.153 24.2189C304.646 24.2189 308.237 25.3523 310.89 27.6465C313.496 29.9682 314.8 33.4689 314.8 38.1031V42.39H290.601C290.638 44.0718 290.911 45.4703 291.33 46.5123C291.777 47.6274 292.442 48.514 293.263 49.1721C294.083 49.8394 295.076 50.2872 296.252 50.5066C297.455 50.7351 298.777 50.8539 300.271 50.8539C301.429 50.8539 302.459 50.7991 303.48 50.6254H303.498C304.437 50.5158 305.275 50.2324 306.059 49.8394L306.068 49.8302H306.077C306.825 49.5103 307.417 49.0259 307.973 48.3586ZM303.744 29.758C302.659 29.5294 301.456 29.3558 300.153 29.3558C298.768 29.3558 297.574 29.4746 296.434 29.7122C295.322 29.9316 294.32 30.3795 293.491 30.9919C292.67 31.5952 292.005 32.4269 291.504 33.5421C291.039 34.5749 290.756 35.8637 290.674 37.5273H308.875C308.848 35.9734 308.62 34.7303 308.21 33.6975C307.763 32.5732 307.207 31.7506 306.451 31.0924C305.685 30.48 304.801 30.0413 303.744 29.758Z" fill="#0C131D"/>
<path fill-rule="evenodd" clip-rule="evenodd" d="M198.994 26.7599C196.579 25.0598 193.225 24.2372 189.042 24.2372C187.037 24.2372 185.205 24.4108 183.655 24.7765C182.042 25.1329 180.657 25.7362 179.508 26.5314L179.499 26.5406C178.342 27.3998 177.43 28.4875 176.71 29.822C175.981 31.1656 175.507 32.8474 175.27 34.8126L175.225 35.2239H180.912L180.957 34.9131C181.131 33.7706 181.413 32.884 181.842 32.1802L181.86 32.1619C182.243 31.4489 182.726 30.9097 183.373 30.4801C184.02 30.0505 184.776 29.7671 185.733 29.6026C186.654 29.4838 187.802 29.3741 189.06 29.3741C191.949 29.3741 193.891 29.8951 195.084 30.7634C196.242 31.6043 196.862 33.0485 196.862 35.2056V37.2896C196.184 37.2815 195.563 37.2376 194.974 37.1959L194.747 37.18H194.711C193.973 37.18 193.225 37.1251 192.469 37.0611H192.432C192.177 37.0611 191.926 37.0534 191.669 37.0455C191.531 37.0412 191.391 37.0369 191.247 37.0337H191.211C190.792 37.0154 190.345 37.0063 189.871 37.0063C189.434 37.0063 188.987 36.9971 188.504 36.9789H188.422C187.912 36.9606 187.365 36.9514 186.781 36.9514C184.248 36.9514 182.161 37.2439 180.538 37.7924H180.529C178.925 38.3865 177.649 39.1086 176.728 40.0409C175.753 40.9641 175.133 42.0061 174.769 43.1121C174.404 44.2089 174.286 45.3058 174.286 46.3295C174.286 48.0479 174.523 49.5743 175.133 50.8174C175.68 52.0331 176.473 53.0751 177.521 53.8154C178.506 54.6107 179.718 55.1591 181.094 55.5156C182.48 55.8812 183.974 56 185.615 56C188.103 56 190.382 55.5795 192.423 54.6198C194.401 53.6875 195.887 52.2342 196.862 50.2873V55.1225H202.722V35.1874C202.713 31.3667 201.455 28.4875 198.994 26.7599ZM181.504 43.0298L181.513 43.0207C182.033 42.6093 182.89 42.2711 184.047 41.9787C185.186 41.7501 186.791 41.5765 188.75 41.5765C189.108 41.5765 189.474 41.5841 189.852 41.5919C190.061 41.5962 190.274 41.6007 190.491 41.6039H190.573C191.211 41.6222 191.885 41.6313 192.587 41.6313C193.891 41.6862 195.331 41.741 196.834 41.7958V44.4648C196.725 45.8268 196.379 46.9236 195.85 47.728C195.294 48.5597 194.583 49.2178 193.717 49.6474C192.815 50.0953 191.803 50.4335 190.673 50.6072C189.525 50.7808 188.44 50.8357 187.283 50.8357C184.731 50.8357 182.89 50.4883 181.75 49.8302C180.684 49.2178 180.128 48.0844 180.128 46.2289C180.128 45.6074 180.183 45.0133 180.392 44.4923L180.411 44.4557C180.566 43.9804 180.921 43.4594 181.504 43.0298Z" fill="#0C131D"/>
<path fill-rule="evenodd" clip-rule="evenodd" d="M112.774 24.2372C116.958 24.2372 120.312 25.0598 122.727 26.7599C125.179 28.4875 126.436 31.3667 126.436 35.1874V55.0951H120.576V50.2598C119.601 52.2067 118.124 53.6601 116.137 54.5924C114.096 55.5521 111.817 55.9726 109.329 55.9726C107.688 55.9726 106.194 55.8538 104.808 55.4881C103.432 55.1317 102.22 54.5832 101.236 53.788C100.187 53.0477 99.3945 52.0057 98.8476 50.79C98.237 49.5469 98 48.0204 98 46.3021C98 45.2783 98.1185 44.1906 98.4831 43.0938C98.8476 41.9878 99.4674 40.9458 100.443 40.0226C101.363 39.0903 102.639 38.3682 104.243 37.7741H104.252C105.875 37.2257 107.962 36.9332 110.496 36.9332C111.079 36.9332 111.626 36.9423 112.136 36.9606H112.218C112.701 36.9789 113.148 36.988 113.585 36.988C114.059 36.988 114.506 36.9972 114.925 37.0154H114.962C115.105 37.0186 115.245 37.0229 115.383 37.0272C115.641 37.0351 115.892 37.0429 116.146 37.0429H116.183C116.948 37.1068 117.696 37.1617 118.434 37.1617H118.471C118.545 37.1669 118.621 37.1722 118.697 37.1776C119.286 37.2193 119.907 37.2633 120.585 37.2714V35.1874C120.585 33.0302 119.965 31.586 118.808 30.7451C117.614 29.8768 115.672 29.3558 112.783 29.3558C111.525 29.3558 110.377 29.4655 109.457 29.5843C108.5 29.7488 107.743 30.0322 107.096 30.4618C106.449 30.8914 105.966 31.4307 105.583 32.1436L105.565 32.1619C105.136 32.8657 104.854 33.7523 104.681 34.8949L104.635 35.2056H98.9479L98.9934 34.8035C99.2304 32.8383 99.7044 31.1564 100.433 29.8128C101.154 28.4783 102.065 27.3906 103.222 26.5314L103.232 26.5223C104.38 25.7362 105.765 25.1329 107.388 24.7765C108.937 24.4108 110.769 24.2372 112.774 24.2372ZM105.237 43.0207L105.228 43.0298C104.644 43.4594 104.289 43.9804 104.134 44.4557L104.116 44.4923C103.906 45.0133 103.851 45.6074 103.851 46.2289C103.851 48.0844 104.407 49.2178 105.474 49.8302C106.613 50.4883 108.454 50.8357 111.006 50.8357C112.163 50.8357 113.248 50.7808 114.396 50.6072C115.527 50.4335 116.538 50.0953 117.441 49.6474C118.306 49.2178 119.026 48.5597 119.573 47.728C120.102 46.9236 120.439 45.8268 120.558 44.4648V41.7958C119.054 41.741 117.605 41.6862 116.31 41.6313C115.609 41.6313 114.934 41.6222 114.296 41.6039H114.214C113.997 41.6006 113.784 41.5962 113.575 41.5919C113.197 41.5841 112.831 41.5765 112.473 41.5765C110.514 41.5765 108.91 41.7501 107.77 41.9787C106.613 42.2711 105.756 42.6093 105.237 43.0207Z" fill="#0C131D"/>
</g>
<defs>
<clipPath id="clip0_1311_9249">
<rect width="347" height="80" fill="white"/>
</clipPath>
</defs>
</svg>
