<svg width="100" height="100" viewBox="0 0 100 100" fill="none" xmlns="http://www.w3.org/2000/svg">
<g clip-path="url(#clip0_1380_11140)">
<rect width="100" height="100" fill="#0C73FE"/>
<g clip-path="url(#clip1_1380_11140)">
<path fill-rule="evenodd" clip-rule="evenodd" d="M32.8346 10L67.1654 10C75.1055 10 77.9848 10.8267 80.8875 12.3792C83.7903 13.9316 86.0684 16.2097 87.6208 19.1125C89.1733 22.0152 90 24.8945 90 32.8346V67.1654C90 75.1055 89.1733 77.9848 87.6208 80.8875C86.0684 83.7903 83.7903 86.0684 80.8875 87.6208C77.9848 89.1733 75.1055 90 67.1654 90H32.8346C24.8945 90 22.0152 89.1733 19.1125 87.6208C16.2097 86.0684 13.9316 83.7903 12.3792 80.8875C10.8267 77.9848 10 75.1055 10 67.1654L10 32.8346C10 24.8945 10.8267 22.0152 12.3792 19.1125C13.9316 16.2097 16.2097 13.9316 19.1125 12.3792C22.0152 10.8267 24.8945 10 32.8346 10Z" fill="#0C73FE"/>
<path d="M43.3529 53C42.6057 53 42 53.6057 42 54.3529V55.0485L42.0017 55.0823C42.1425 57.8981 44.2669 60.718 47.8815 60.996L47.9333 61H48.6471C49.3943 61 50 60.3943 50 59.6471C50 58.8998 49.3943 58.2941 48.6471 58.2941H48.0406C45.9629 58.1118 44.7986 56.5502 44.7059 54.9781V54.3529C44.7059 53.6057 44.1002 53 43.3529 53Z" fill="white"/>
<path fill-rule="evenodd" clip-rule="evenodd" d="M47.0633 31.1386C40.0704 31.4465 34.6643 37.1867 34.3133 44.1775C34.1372 47.6839 33.9999 50.819 33.9999 53.7333C33.9999 56.4516 34.1194 59.1732 34.2783 62.3013C34.6318 69.2575 40.0289 74.946 46.987 75.2579C48.0408 75.3052 49.0621 75.3333 49.9999 75.3333C50.9672 75.3333 52.023 75.3034 53.1118 75.2534C60.0247 74.9363 65.4017 69.3149 65.7425 62.4031C65.8909 59.394 65.9999 56.7049 65.9999 53.7333C65.9999 50.4143 65.8786 47.3525 65.7177 44.0451C65.3806 37.1121 59.9996 31.4591 53.0655 31.1444C51.9931 31.0957 50.9535 31.0666 49.9999 31.0666C49.0847 31.0666 48.09 31.0934 47.0633 31.1386ZM38.2021 44.9793C38.4672 39.6509 42.5131 35.2987 47.7246 35.0585C48.5205 35.0219 49.2919 35 50 35C50.7433 35 51.5565 35.0241 52.3945 35.0641C57.5514 35.3105 61.5708 39.5809 61.8203 44.8547C61.844 45.3573 61.8664 45.7858 61.8866 46.1741C61.9551 47.4905 62 48.353 62 50.1412C62 51.9053 61.951 52.9092 61.8773 54.4191C61.8654 54.6617 61.8529 54.9176 61.8399 55.1915C61.5902 60.4449 57.575 64.6853 52.438 64.9338C51.5847 64.9751 50.7562 65 50 65C49.2712 65 48.4752 64.9768 47.6546 64.9382C42.4751 64.6944 38.4379 60.3907 38.1746 55.0948C38.1574 54.7491 38.1411 54.4325 38.1257 54.136L38.1256 54.1337C38.0503 52.676 38 51.7033 38 50.1412C38 48.6408 38.0464 47.8167 38.1168 46.5655C38.1424 46.1109 38.1712 45.5996 38.2021 44.9793Z" fill="white"/>
<path fill-rule="evenodd" clip-rule="evenodd" d="M32.8346 15H67.1654C74.7004 15 76.6478 15.7818 78.5295 16.7882C80.561 17.8746 82.1254 19.439 83.2118 21.4705C84.2182 23.3522 85 25.2996 85 32.8346V34.0213C85 34.567 84.5625 35.0112 84.0174 35.0343C83.8496 35.0414 83.6799 35.0495 83.509 35.0585C78.949 35.2987 75.4088 39.6509 75.1768 44.9793C75.15 45.5957 75.1249 46.1051 75.1026 46.5575L75.1023 46.563L75.1022 46.5655C75.0406 47.8167 75 48.6408 75 50.1412C75 51.7033 75.044 52.6764 75.1099 54.1341C75.1234 54.4312 75.1377 54.7483 75.1528 55.0948C75.3831 60.3907 78.9158 64.6944 83.4478 64.9382C83.6394 64.9485 83.8295 64.9577 84.0174 64.9657C84.5625 64.9888 85 65.433 85 65.9787V67.1654C85 74.7004 84.2182 76.6478 83.2118 78.5295C82.1254 80.561 80.561 82.1254 78.5295 83.2118C76.6478 84.2182 74.7004 85 67.1654 85H32.8346C25.2996 85 23.3522 84.2182 21.4705 83.2118C19.439 82.1254 17.8746 80.561 16.7882 78.5295C15.7818 76.6478 15 74.7004 15 67.1654V65.9787C15 65.433 15.4375 64.9888 15.9826 64.9657C16.1969 64.9566 16.4142 64.9459 16.6333 64.9338C21.1281 64.6853 24.6414 60.4449 24.8599 55.1915C24.8711 54.9219 24.8819 54.6699 24.8921 54.4308L24.8926 54.4187C24.9571 52.9088 25 51.9053 25 50.1412C25 48.353 24.9607 47.4897 24.9007 46.1733C24.883 45.785 24.8635 45.3573 24.8427 44.8547C24.6245 39.5809 21.1075 35.3105 16.5952 35.0641C16.389 35.0529 16.1845 35.0429 15.9826 35.0343C15.4375 35.0112 15 34.567 15 34.0213V32.8346C15 25.2996 15.7818 23.3522 16.7882 21.4705C17.8746 19.439 19.439 17.8746 21.4705 16.7882C23.3522 15.7818 25.2996 15 32.8346 15ZM46.911 27.6752C38.0083 28.0671 31.2855 35.3526 30.8511 44.0036C30.6751 47.5098 30.5334 50.7227 30.5334 53.7332C30.5334 56.5469 30.6571 59.3447 30.8163 62.4771C31.2547 71.1063 37.9801 78.3241 46.832 78.721C47.9213 78.7698 48.9965 78.7998 50.0001 78.7998C51.0349 78.7998 52.1461 78.7679 53.2708 78.7163C62.0583 78.3132 68.7808 71.1796 69.2051 62.5737C69.3543 59.5484 69.4668 56.7915 69.4668 53.7332C69.4668 50.3292 69.3422 47.201 69.1805 43.8766C68.7613 35.2568 62.0418 28.0814 53.2229 27.6812C52.1147 27.6309 51.0203 27.5999 50.0001 27.5999C49.0206 27.5999 47.9731 27.6284 46.911 27.6752Z" fill="white"/>
</g>
</g>
<defs>
<clipPath id="clip0_1380_11140">
<rect width="100" height="100" fill="white"/>
</clipPath>
<clipPath id="clip1_1380_11140">
<rect width="80" height="80" fill="white" transform="translate(10 10)"/>
</clipPath>
</defs>
</svg>
