<svg width="487" height="220" viewBox="0 0 487 220" fill="none" xmlns="http://www.w3.org/2000/svg">
<rect width="487" height="220" rx="24" fill="#0C73FE"/>
<path d="M103.353 113C102.606 113 102 113.606 102 114.353V115.049L102.002 115.082C102.142 117.898 104.267 120.718 107.882 120.996L107.933 121H108.647C109.394 121 110 120.394 110 119.647C110 118.9 109.394 118.294 108.647 118.294H108.041C105.963 118.112 104.799 116.55 104.706 114.978V114.353C104.706 113.606 104.1 113 103.353 113Z" fill="white"/>
<path fill-rule="evenodd" clip-rule="evenodd" d="M107.063 91.1386C100.07 91.4465 94.6643 97.1867 94.3133 104.178C94.1372 107.684 93.9999 110.819 93.9999 113.733C93.9999 116.452 94.1194 119.173 94.2783 122.301C94.6318 129.257 100.029 134.946 106.987 135.258C108.041 135.305 109.062 135.333 110 135.333C110.967 135.333 112.023 135.303 113.112 135.253C120.025 134.936 125.402 129.315 125.743 122.403C125.891 119.394 126 116.705 126 113.733C126 110.414 125.879 107.352 125.718 104.045C125.381 97.1121 120 91.4591 113.066 91.1444C111.993 91.0957 110.953 91.0666 110 91.0666C109.085 91.0666 108.09 91.0934 107.063 91.1386ZM98.2021 104.979C98.4672 99.6509 102.513 95.2987 107.725 95.0585C108.52 95.0219 109.292 95 110 95C110.743 95 111.557 95.0241 112.394 95.0641C117.551 95.3105 121.571 99.5809 121.82 104.855C121.844 105.357 121.866 105.786 121.887 106.174C121.955 107.49 122 108.353 122 110.141C122 111.905 121.951 112.909 121.877 114.419C121.865 114.662 121.853 114.918 121.84 115.192C121.59 120.445 117.575 124.685 112.438 124.934C111.585 124.975 110.756 125 110 125C109.271 125 108.475 124.977 107.655 124.938C102.475 124.694 98.4379 120.391 98.1746 115.095C98.1574 114.749 98.1411 114.432 98.1257 114.136L98.1256 114.134C98.0503 112.676 98 111.703 98 110.141C98 108.641 98.0464 107.817 98.1168 106.566C98.1424 106.111 98.1712 105.6 98.2021 104.979Z" fill="white"/>
<path fill-rule="evenodd" clip-rule="evenodd" d="M92.8346 75H127.165C134.7 75 136.648 75.7818 138.53 76.7882C140.561 77.8746 142.125 79.439 143.212 81.4705C144.218 83.3522 145 85.2996 145 92.8346V94.0213C145 94.567 144.563 95.0112 144.017 95.0343C143.85 95.0414 143.68 95.0495 143.509 95.0585C138.949 95.2987 135.409 99.6509 135.177 104.979C135.15 105.596 135.125 106.105 135.103 106.557L135.102 106.563L135.102 106.566C135.041 107.817 135 108.641 135 110.141C135 111.703 135.044 112.676 135.11 114.134C135.123 114.431 135.138 114.748 135.153 115.095C135.383 120.391 138.916 124.694 143.448 124.938C143.639 124.949 143.83 124.958 144.017 124.966C144.563 124.989 145 125.433 145 125.979V127.165C145 134.7 144.218 136.648 143.212 138.53C142.125 140.561 140.561 142.125 138.53 143.212C136.648 144.218 134.7 145 127.165 145H92.8346C85.2996 145 83.3522 144.218 81.4705 143.212C79.439 142.125 77.8746 140.561 76.7882 138.53C75.7818 136.648 75 134.7 75 127.165V125.979C75 125.433 75.4375 124.989 75.9826 124.966C76.1969 124.957 76.4142 124.946 76.6333 124.934C81.1281 124.685 84.6414 120.445 84.8599 115.192C84.8711 114.922 84.8819 114.67 84.8921 114.431L84.8926 114.419C84.9571 112.909 85 111.905 85 110.141C85 108.353 84.9607 107.49 84.9007 106.173C84.883 105.785 84.8635 105.357 84.8427 104.855C84.6245 99.5809 81.1075 95.3105 76.5952 95.0641C76.389 95.0529 76.1845 95.0429 75.9826 95.0343C75.4375 95.0112 75 94.567 75 94.0213V92.8346C75 85.2996 75.7818 83.3522 76.7882 81.4705C77.8746 79.439 79.439 77.8746 81.4705 76.7882C83.3522 75.7818 85.2996 75 92.8346 75ZM106.911 87.6752C98.0083 88.0671 91.2855 95.3526 90.8511 104.004C90.6751 107.51 90.5334 110.723 90.5334 113.733C90.5334 116.547 90.6571 119.345 90.8163 122.477C91.2547 131.106 97.9801 138.324 106.832 138.721C107.921 138.77 108.997 138.8 110 138.8C111.035 138.8 112.146 138.768 113.271 138.716C122.058 138.313 128.781 131.18 129.205 122.574C129.354 119.548 129.467 116.792 129.467 113.733C129.467 110.329 129.342 107.201 129.18 103.877C128.761 95.2568 122.042 88.0814 113.223 87.6812C112.115 87.6309 111.02 87.5999 110 87.5999C109.021 87.5999 107.973 87.6284 106.911 87.6752Z" fill="white"/>
<path d="M343.412 84H349.272V125.095H343.412V84Z" fill="white"/>
<path d="M239.72 84.2377H233.394V90.4714H239.72V84.2377Z" fill="white"/>
<path d="M296.893 108.103C299.664 108.578 301.787 109.41 303.2 110.708C304.64 112.088 305.36 113.944 305.369 116.311C305.369 117.765 305.068 119.099 304.585 120.306V120.324C304.029 121.567 303.164 122.545 302.015 123.395C300.867 124.245 299.418 124.903 297.631 125.324C295.836 125.808 293.639 125.982 291.124 125.982C289.182 125.982 287.341 125.799 285.683 125.442C284.015 125.077 282.511 124.483 281.244 123.633C279.904 122.773 278.874 121.686 278.09 120.287C277.297 118.944 276.824 117.253 276.641 115.223L276.605 114.83H282.411L282.438 115.16C282.556 116.348 282.839 117.271 283.313 117.966L283.322 117.975C283.805 118.733 284.461 119.282 285.236 119.73C286.011 120.178 286.849 120.452 287.861 120.625C288.882 120.799 289.966 120.854 291.124 120.854C292.865 120.854 294.232 120.735 295.371 120.507C296.456 120.278 297.294 119.995 297.941 119.611C298.579 119.245 298.998 118.77 299.254 118.258C299.472 117.71 299.627 117.052 299.627 116.357C299.627 115.306 299.217 114.611 298.515 114.154C297.75 113.66 296.756 113.322 295.499 113.094H295.489L286.339 111.631C283.787 111.22 281.727 110.379 280.26 109.026C278.774 107.655 278.045 105.727 278.045 103.314C278.045 102.098 278.282 100.882 278.774 99.7763C279.275 98.652 280.077 97.7288 281.162 96.8879C282.265 96.0287 283.65 95.4254 285.309 94.9501C286.986 94.4748 288.945 94.2372 291.242 94.2372C293.074 94.2372 294.797 94.4108 296.456 94.7673C298.069 95.1238 299.509 95.7271 300.712 96.5131L300.721 96.5223C301.933 97.3723 302.963 98.46 303.747 99.7945C304.54 101.138 305.014 102.838 305.251 104.794L305.296 105.206H299.418L299.381 104.877C299.272 103.761 298.944 102.884 298.506 102.171C298.014 101.458 297.413 100.91 296.702 100.471C295.927 100.032 295.098 99.758 294.204 99.5843C293.211 99.4655 292.245 99.3558 291.224 99.3558C289.665 99.3558 288.417 99.4655 287.46 99.694C286.43 99.9225 285.655 100.206 285.117 100.526C284.598 100.837 284.243 101.248 284.042 101.705C283.832 102.18 283.723 102.719 283.723 103.314C283.723 104.456 284.088 105.196 284.826 105.635H284.835L284.844 105.644C285.655 106.184 286.758 106.531 288.198 106.76L296.893 108.103Z" fill="white"/>
<path d="M204.566 95.1146L214.264 116.695L223.569 95.1146H229.931L215.895 125.095H212.532L198.141 95.1146H204.566Z" fill="white"/>
<path fill-rule="evenodd" clip-rule="evenodd" d="M323.98 94.2372C328.164 94.2372 331.518 95.0598 333.933 96.7599C336.394 98.4875 337.652 101.367 337.67 105.187V125.123H331.81V120.287C330.834 122.234 329.349 123.687 327.371 124.62C325.329 125.58 323.051 126 320.563 126C318.922 126 317.427 125.881 316.042 125.516C314.666 125.159 313.454 124.611 312.469 123.815C311.421 123.075 310.628 122.033 310.081 120.817C309.462 119.574 309.225 118.048 309.225 116.329C309.225 115.306 309.343 114.209 309.708 113.112C310.072 112.006 310.692 110.964 311.667 110.041C312.588 109.109 313.864 108.386 315.468 107.792H315.477C317.099 107.244 319.186 106.951 321.72 106.951C322.303 106.951 322.85 106.961 323.361 106.979H323.443C323.926 106.997 324.372 107.006 324.81 107.006C325.284 107.006 325.73 107.015 326.15 107.034H326.186C326.329 107.037 326.47 107.041 326.608 107.045C326.865 107.053 327.116 107.061 327.371 107.061H327.407C328.164 107.125 328.911 107.18 329.65 107.18H329.686L329.912 107.196C330.501 107.238 331.122 107.282 331.8 107.29V105.206C331.8 103.049 331.181 101.604 330.023 100.763C328.829 99.8951 326.888 99.3741 323.999 99.3741C322.741 99.3741 321.593 99.4838 320.672 99.6026C319.724 99.7671 318.959 100.05 318.311 100.48C317.664 100.91 317.181 101.449 316.798 102.162L316.78 102.18C316.343 102.884 316.069 103.771 315.896 104.913L315.851 105.224H310.163L310.209 104.813C310.446 102.847 310.92 101.166 311.649 99.822C312.369 98.4875 313.28 97.3998 314.438 96.5406L314.447 96.5314C315.595 95.7362 316.981 95.1329 318.594 94.7765C320.143 94.4108 321.975 94.2372 323.98 94.2372ZM316.698 119.849C317.837 120.507 319.679 120.854 322.231 120.854C323.388 120.854 324.482 120.799 325.63 120.598C326.76 120.424 327.772 120.086 328.674 119.638C329.54 119.209 330.251 118.551 330.807 117.719C331.336 116.914 331.682 115.818 331.791 114.456V111.787C330.288 111.732 328.847 111.677 327.544 111.622C326.842 111.622 326.168 111.613 325.53 111.595H325.448C325.23 111.592 325.018 111.587 324.809 111.583C324.431 111.575 324.065 111.567 323.707 111.567C321.747 111.567 320.143 111.741 319.004 111.97C317.856 112.262 316.99 112.6 316.47 113.012L316.452 113.03C315.86 113.45 315.504 113.971 315.358 114.474L315.34 114.511C315.131 115.032 315.076 115.626 315.076 116.247C315.076 118.103 315.632 119.236 316.698 119.849Z" fill="white"/>
<path d="M239.492 95.1146H233.631V125.095H239.492V95.1146Z" fill="white"/>
<path d="M414.84 110.708C413.427 109.41 411.304 108.578 408.533 108.103L399.838 106.76C398.398 106.531 397.295 106.184 396.484 105.644L396.475 105.635H396.466C395.727 105.196 395.363 104.456 395.363 103.314C395.363 102.719 395.472 102.18 395.682 101.705C395.882 101.248 396.238 100.837 396.757 100.526C397.295 100.206 398.07 99.9225 399.1 99.694C400.057 99.4655 401.305 99.3558 402.864 99.3558C403.885 99.3558 404.851 99.4655 405.844 99.5843C406.737 99.758 407.567 100.032 408.342 100.471C409.052 100.91 409.654 101.458 410.146 102.171C410.584 102.884 410.912 103.761 411.021 104.877L411.058 105.206H416.936L416.891 104.794C416.654 102.838 416.18 101.138 415.387 99.7945C414.603 98.46 413.573 97.3723 412.361 96.5223L412.352 96.5131C411.149 95.7271 409.709 95.1238 408.095 94.7673C406.437 94.4108 404.714 94.2372 402.882 94.2372C400.585 94.2372 398.626 94.4748 396.949 94.9501C395.29 95.4254 393.905 96.0287 392.802 96.8879C391.717 97.7288 390.915 98.652 390.414 99.7763C389.922 100.882 389.685 102.098 389.685 103.314C389.685 105.727 390.414 107.655 391.899 109.026C393.367 110.379 395.427 111.22 397.979 111.631L407.129 113.094H407.138C408.396 113.322 409.39 113.66 410.155 114.154C410.857 114.611 411.267 115.306 411.267 116.357C411.267 117.061 411.112 117.71 410.893 118.258C410.638 118.77 410.219 119.245 409.581 119.611C408.934 119.995 408.095 120.278 407.011 120.507C405.872 120.735 404.504 120.854 402.764 120.854C401.606 120.854 400.522 120.799 399.501 120.625C398.489 120.452 397.651 120.178 396.876 119.73C396.101 119.282 395.445 118.733 394.962 117.975L394.944 117.966C394.47 117.271 394.187 116.348 394.069 115.16L394.041 114.83H388.236L388.272 115.223C388.454 117.253 388.928 118.944 389.721 120.287C390.505 121.686 391.535 122.773 392.875 123.623C394.142 124.474 395.645 125.068 397.313 125.433C398.972 125.79 400.813 125.973 402.755 125.973C405.27 125.973 407.467 125.799 409.262 125.314C411.048 124.894 412.498 124.236 413.646 123.386C414.794 122.536 415.66 121.558 416.216 120.315V120.296C416.699 119.09 417 117.755 417 116.302C417 113.944 416.271 112.088 414.84 110.708Z" fill="white"/>
<path fill-rule="evenodd" clip-rule="evenodd" d="M377.973 118.359C378.456 117.71 378.784 116.896 379.012 115.818L379.076 115.507H384.872L384.809 115.927C384.517 117.774 383.979 119.346 383.123 120.635C382.284 121.969 381.254 123.002 379.978 123.788C378.711 124.574 377.271 125.113 375.667 125.47C373.999 125.826 372.222 125.945 370.281 125.945C367.865 125.945 365.733 125.717 363.828 125.177C361.914 124.702 360.228 123.797 358.897 122.581C357.566 121.357 356.545 119.721 355.825 117.691C355.105 115.708 354.75 113.213 354.75 110.26C354.75 107.244 355.096 104.685 355.816 102.646C356.527 100.617 357.548 98.9262 358.879 97.6465L358.888 97.6374C360.209 96.4309 361.841 95.526 363.755 94.9867H363.764C365.66 94.5114 367.792 94.2189 370.153 94.2189C374.646 94.2189 378.237 95.3523 380.89 97.6465C383.496 99.9682 384.8 103.469 384.8 108.103V112.39H360.601C360.638 114.072 360.911 115.47 361.33 116.512C361.777 117.627 362.442 118.514 363.263 119.172C364.083 119.839 365.076 120.287 366.252 120.507C367.455 120.735 368.777 120.854 370.271 120.854C371.429 120.854 372.459 120.799 373.48 120.625H373.498C374.437 120.516 375.275 120.232 376.059 119.839L376.068 119.83H376.077C376.825 119.51 377.417 119.026 377.973 118.359ZM373.744 99.758C372.659 99.5294 371.456 99.3558 370.153 99.3558C368.768 99.3558 367.574 99.4746 366.434 99.7122C365.322 99.9316 364.32 100.379 363.491 100.992C362.67 101.595 362.005 102.427 361.504 103.542C361.039 104.575 360.756 105.864 360.674 107.527H378.875C378.848 105.973 378.62 104.73 378.21 103.697C377.763 102.573 377.207 101.751 376.451 101.092C375.685 100.48 374.801 100.041 373.744 99.758Z" fill="white"/>
<path fill-rule="evenodd" clip-rule="evenodd" d="M268.994 96.7599C266.579 95.0598 263.225 94.2372 259.042 94.2372C257.037 94.2372 255.205 94.4108 253.655 94.7765C252.042 95.1329 250.657 95.7362 249.508 96.5314L249.499 96.5406C248.342 97.3998 247.43 98.4875 246.71 99.822C245.981 101.166 245.507 102.847 245.27 104.813L245.225 105.224H250.912L250.957 104.913C251.131 103.771 251.413 102.884 251.842 102.18L251.86 102.162C252.243 101.449 252.726 100.91 253.373 100.48C254.02 100.05 254.776 99.7671 255.733 99.6026C256.654 99.4838 257.802 99.3741 259.06 99.3741C261.949 99.3741 263.891 99.8951 265.084 100.763C266.242 101.604 266.862 103.049 266.862 105.206V107.29C266.184 107.282 265.563 107.238 264.974 107.196L264.747 107.18H264.711C263.973 107.18 263.225 107.125 262.469 107.061H262.432C262.177 107.061 261.926 107.053 261.669 107.045C261.531 107.041 261.391 107.037 261.247 107.034H261.211C260.792 107.015 260.345 107.006 259.871 107.006C259.434 107.006 258.987 106.997 258.504 106.979H258.422C257.912 106.961 257.365 106.951 256.781 106.951C254.248 106.951 252.161 107.244 250.538 107.792H250.529C248.925 108.386 247.649 109.109 246.728 110.041C245.753 110.964 245.133 112.006 244.769 113.112C244.404 114.209 244.286 115.306 244.286 116.329C244.286 118.048 244.523 119.574 245.133 120.817C245.68 122.033 246.473 123.075 247.521 123.815C248.506 124.611 249.718 125.159 251.094 125.516C252.48 125.881 253.974 126 255.615 126C258.103 126 260.382 125.58 262.423 124.62C264.401 123.687 265.887 122.234 266.862 120.287V125.123H272.722V105.187C272.713 101.367 271.455 98.4875 268.994 96.7599ZM251.504 113.03L251.513 113.021C252.033 112.609 252.89 112.271 254.047 111.979C255.186 111.75 256.791 111.576 258.75 111.576C259.108 111.576 259.474 111.584 259.852 111.592C260.061 111.596 260.274 111.601 260.491 111.604H260.573C261.211 111.622 261.885 111.631 262.587 111.631C263.891 111.686 265.331 111.741 266.834 111.796V114.465C266.725 115.827 266.379 116.924 265.85 117.728C265.294 118.56 264.583 119.218 263.717 119.647C262.815 120.095 261.803 120.434 260.673 120.607C259.525 120.781 258.44 120.836 257.283 120.836C254.731 120.836 252.89 120.488 251.75 119.83C250.684 119.218 250.128 118.084 250.128 116.229C250.128 115.607 250.183 115.013 250.392 114.492L250.411 114.456C250.566 113.98 250.921 113.459 251.504 113.03Z" fill="white"/>
<path fill-rule="evenodd" clip-rule="evenodd" d="M182.774 94.2372C186.958 94.2372 190.312 95.0598 192.727 96.7599C195.179 98.4875 196.436 101.367 196.436 105.187V125.095H190.576V120.26C189.601 122.207 188.124 123.66 186.137 124.592C184.096 125.552 181.817 125.973 179.329 125.973C177.688 125.973 176.194 125.854 174.808 125.488C173.432 125.132 172.22 124.583 171.236 123.788C170.187 123.048 169.394 122.006 168.848 120.79C168.237 119.547 168 118.02 168 116.302C168 115.278 168.118 114.191 168.483 113.094C168.848 111.988 169.467 110.946 170.443 110.023C171.363 109.09 172.639 108.368 174.243 107.774H174.252C175.875 107.226 177.962 106.933 180.496 106.933C181.079 106.933 181.626 106.942 182.136 106.961H182.218C182.701 106.979 183.148 106.988 183.585 106.988C184.059 106.988 184.506 106.997 184.925 107.015H184.962C185.105 107.019 185.245 107.023 185.383 107.027C185.641 107.035 185.892 107.043 186.146 107.043H186.183C186.948 107.107 187.696 107.162 188.434 107.162H188.471C188.545 107.167 188.621 107.172 188.697 107.178C189.286 107.219 189.907 107.263 190.585 107.271V105.187C190.585 103.03 189.965 101.586 188.808 100.745C187.614 99.8768 185.672 99.3558 182.783 99.3558C181.525 99.3558 180.377 99.4655 179.457 99.5843C178.5 99.7488 177.743 100.032 177.096 100.462C176.449 100.891 175.966 101.431 175.583 102.144L175.565 102.162C175.136 102.866 174.854 103.752 174.681 104.895L174.635 105.206H168.948L168.993 104.803C169.23 102.838 169.704 101.156 170.433 99.8128C171.154 98.4783 172.065 97.3906 173.222 96.5314L173.232 96.5223C174.38 95.7362 175.765 95.1329 177.388 94.7765C178.937 94.4108 180.769 94.2372 182.774 94.2372ZM175.237 113.021L175.228 113.03C174.644 113.459 174.289 113.98 174.134 114.456L174.116 114.492C173.906 115.013 173.851 115.607 173.851 116.229C173.851 118.084 174.407 119.218 175.474 119.83C176.613 120.488 178.454 120.836 181.006 120.836C182.163 120.836 183.248 120.781 184.396 120.607C185.527 120.434 186.538 120.095 187.441 119.647C188.306 119.218 189.026 118.56 189.573 117.728C190.102 116.924 190.439 115.827 190.558 114.465V111.796C189.054 111.741 187.605 111.686 186.31 111.631C185.609 111.631 184.934 111.622 184.296 111.604H184.214C183.997 111.601 183.784 111.596 183.575 111.592C183.197 111.584 182.831 111.576 182.473 111.576C180.514 111.576 178.91 111.75 177.77 111.979C176.613 112.271 175.756 112.609 175.237 113.021Z" fill="white"/>
</svg>
